<svg width="24" height="24" viewBox="0 0 24 24" fill="none" xmlns="http://www.w3.org/2000/svg">
<path d="M19.9883 4.0884C19.8941 3.98491 19.7799 3.9016 19.6526 3.84349C19.5253 3.78537 19.3876 3.75367 19.2477 3.7503C19.1078 3.74693 18.9687 3.77195 18.8387 3.82386C18.7088 3.87576 18.5907 3.95348 18.4916 4.0523L17.6944 4.84572C17.5977 4.94241 17.5435 5.07351 17.5435 5.2102C17.5435 5.34689 17.5977 5.47799 17.6944 5.57468L18.4253 6.30429C18.4732 6.35242 18.5301 6.39062 18.5928 6.41668C18.6556 6.44274 18.7228 6.45616 18.7907 6.45616C18.8586 6.45616 18.9259 6.44274 18.9886 6.41668C19.0513 6.39062 19.1083 6.35242 19.1562 6.30429L19.9335 5.53085C20.3266 5.13833 20.3634 4.49896 19.9883 4.0884Z" fill="white"/>
<path d="M16.0825 6.45717L4.44746 18.0716C4.37692 18.1419 4.32564 18.2291 4.29857 18.3249L3.76039 19.9278C3.7475 19.9713 3.74659 20.0175 3.75775 20.0615C3.76891 20.1054 3.79173 20.1456 3.82381 20.1777C3.85589 20.2097 3.89603 20.2326 3.94 20.2437C3.98397 20.2549 4.03014 20.254 4.07363 20.2411L5.67529 19.7029C5.7711 19.6758 5.85833 19.6246 5.92859 19.554L17.543 7.91767C17.6505 7.80907 17.7107 7.66246 17.7107 7.50968C17.7107 7.35691 17.6505 7.2103 17.543 7.1017L16.9017 6.45717C16.793 6.34873 16.6457 6.28784 16.4921 6.28784C16.3386 6.28784 16.1913 6.34873 16.0825 6.45717Z" fill="white"/>
</svg>
