<svg width="24" height="24" viewBox="0 0 24 24" fill="none" xmlns="http://www.w3.org/2000/svg">
<path d="M3 6.74997H13.6289C13.7841 7.1885 14.0714 7.56814 14.4512 7.83665C14.8311 8.10516 15.2848 8.24934 15.75 8.24934C16.2152 8.24934 16.6689 8.10516 17.0488 7.83665C17.4286 7.56814 17.7159 7.1885 17.8711 6.74997H21C21.1989 6.74997 21.3897 6.67096 21.5303 6.5303C21.671 6.38965 21.75 6.19889 21.75 5.99997C21.75 5.80106 21.671 5.6103 21.5303 5.46964C21.3897 5.32899 21.1989 5.24997 21 5.24997H17.8711C17.7159 4.81145 17.4286 4.43181 17.0488 4.1633C16.6689 3.89479 16.2152 3.75061 15.75 3.75061C15.2848 3.75061 14.8311 3.89479 14.4512 4.1633C14.0714 4.43181 13.7841 4.81145 13.6289 5.24997H3C2.80109 5.24997 2.61032 5.32899 2.46967 5.46964C2.32902 5.6103 2.25 5.80106 2.25 5.99997C2.25 6.19889 2.32902 6.38965 2.46967 6.5303C2.61032 6.67096 2.80109 6.74997 3 6.74997Z" fill="white"/>
<path d="M21 17.25H17.8711C17.7159 16.8114 17.4286 16.4318 17.0488 16.1633C16.6689 15.8948 16.2152 15.7506 15.75 15.7506C15.2848 15.7506 14.8311 15.8948 14.4512 16.1633C14.0714 16.4318 13.7841 16.8114 13.6289 17.25H3C2.80109 17.25 2.61032 17.329 2.46967 17.4696C2.32902 17.6103 2.25 17.8011 2.25 18C2.25 18.1989 2.32902 18.3896 2.46967 18.5303C2.61032 18.671 2.80109 18.75 3 18.75H13.6289C13.7841 19.1885 14.0714 19.5681 14.4512 19.8366C14.8311 20.1052 15.2848 20.2493 15.75 20.2493C16.2152 20.2493 16.6689 20.1052 17.0488 19.8366C17.4286 19.5681 17.7159 19.1885 17.8711 18.75H21C21.1989 18.75 21.3897 18.671 21.5303 18.5303C21.671 18.3896 21.75 18.1989 21.75 18C21.75 17.8011 21.671 17.6103 21.5303 17.4696C21.3897 17.329 21.1989 17.25 21 17.25Z" fill="white"/>
<path d="M21 11.25H10.3711C10.2159 10.8114 9.92861 10.4318 9.54876 10.1633C9.16891 9.89479 8.71517 9.75061 8.25 9.75061C7.78483 9.75061 7.33109 9.89479 6.95124 10.1633C6.57139 10.4318 6.2841 10.8114 6.12891 11.25H3C2.80109 11.25 2.61032 11.329 2.46967 11.4696C2.32902 11.6103 2.25 11.8011 2.25 12C2.25 12.1989 2.32902 12.3896 2.46967 12.5303C2.61032 12.671 2.80109 12.75 3 12.75H6.12891C6.2841 13.1885 6.57139 13.5681 6.95124 13.8366C7.33109 14.1052 7.78483 14.2493 8.25 14.2493C8.71517 14.2493 9.16891 14.1052 9.54876 13.8366C9.92861 13.5681 10.2159 13.1885 10.3711 12.75H21C21.1989 12.75 21.3897 12.671 21.5303 12.5303C21.671 12.3896 21.75 12.1989 21.75 12C21.75 11.8011 21.671 11.6103 21.5303 11.4696C21.3897 11.329 21.1989 11.25 21 11.25Z" fill="white"/>
</svg>
