<svg width="24" height="24" viewBox="0 0 24 24" fill="none" xmlns="http://www.w3.org/2000/svg">
<path d="M19.125 5.25H8.625C7.73 5.25 6.871 5.606 6.239 6.239C5.606 6.871 5.25 7.73 5.25 8.625V19.125C5.25 20.02 5.606 20.879 6.239 21.511C6.872 22.144 7.73 22.5 8.625 22.5H19.125C20.02 22.5 20.879 22.144 21.511 21.511C22.144 20.878 22.5 20.02 22.5 19.125V8.625C22.5 7.73 22.144 6.871 21.511 6.239C20.879 5.606 20.02 5.25 19.125 5.25ZM17.042 11.769L14.936 13.875L17.042 15.981C17.327 16.266 17.353 16.731 17.082 17.03C17.014 17.105 16.931 17.166 16.839 17.208C16.747 17.25 16.647 17.273 16.545 17.276C16.444 17.278 16.343 17.26 16.248 17.223C16.154 17.185 16.068 17.129 15.996 17.057L13.875 14.936L11.769 17.042C11.484 17.327 11.019 17.353 10.72 17.082C10.645 17.014 10.584 16.931 10.542 16.839C10.5 16.747 10.477 16.647 10.474 16.545C10.472 16.444 10.49 16.343 10.527 16.248C10.565 16.154 10.621 16.068 10.693 15.996L12.814 13.875L10.708 11.769C10.423 11.484 10.397 11.019 10.668 10.72C10.736 10.645 10.819 10.584 10.911 10.542C11.003 10.5 11.103 10.477 11.205 10.474C11.307 10.471 11.408 10.49 11.502 10.527C11.596 10.565 11.682 10.621 11.754 10.693L13.875 12.814L15.996 10.693C16.068 10.621 16.153 10.564 16.248 10.527C16.342 10.489 16.443 10.471 16.545 10.473C16.647 10.475 16.747 10.498 16.839 10.541C16.931 10.583 17.014 10.644 17.083 10.719C17.354 11.018 17.328 11.484 17.042 11.769Z" fill="white"/>
<path d="M18.5569 3.75C18.3235 3.09246 17.8924 2.52322 17.3228 2.12038C16.7531 1.71755 16.0727 1.50084 15.375 1.5H4.875C3.97989 1.5 3.12145 1.85558 2.48851 2.48851C1.85558 3.12145 1.5 3.97989 1.5 4.875V15.375C1.50084 16.0727 1.71755 16.7531 2.12038 17.3228C2.52322 17.8924 3.09246 18.3235 3.75 18.5569V7.5C3.75 6.50544 4.14509 5.55161 4.84835 4.84835C5.55161 4.14509 6.50544 3.75 7.5 3.75H18.5569Z" fill="white"/>
</svg>
